<?xml version="1.0" encoding="utf-8"?>
<!-- Generator: Adobe Illustrator 25.0.0, SVG Export Plug-In . SVG Version: 6.00 Build 0)  -->
<svg version="1.0" id="레이어_1" xmlns="http://www.w3.org/2000/svg" xmlns:xlink="http://www.w3.org/1999/xlink" x="0px"
	 y="0px" viewBox="0 0 24 24" style="enable-background:new 0 0 24 24;" xml:space="preserve">
<style type="text/css">
	.st0{fill:#FFFFFF;stroke:#FFFFFF;stroke-miterlimit:10;}
</style>
<path d="M0,0h24v24H0V0z M22,18.3c-0.2-1.1-0.9-2-3-2.9c-0.7-0.3-1.6-0.6-1.8-1.1c-0.1-0.3-0.1-0.5,0-0.7c0.1-0.6,0.9-0.8,1.5-0.7
	c0.4,0.1,0.8,0.4,1,0.9c1-0.7,1-0.7,1.8-1.1c-0.3-0.4-0.4-0.6-0.6-0.8c-0.6-0.7-1.5-1.1-2.8-1l-0.7,0.1c-0.7,0.2-1.3,0.5-1.7,1
	c-1.1,1.3-0.8,3.5,0.6,4.5c1.4,1,3.4,1.2,3.6,2.2c0.2,1.2-0.9,1.5-2,1.4c-0.8-0.2-1.3-0.6-1.8-1.3l-1.8,1.1c0.2,0.5,0.4,0.7,0.8,1.1
	c1.7,1.8,6.1,1.7,6.9-1C21.9,19.8,22.2,19.2,22,18.3C22,18.2,22,18.3,22,18.3z M13.1,11h-2.2c0,1.9,0,3.9,0,5.8
	c0,1.2,0.1,2.4-0.1,2.7c-0.3,0.7-1.2,0.6-1.6,0.5c-0.4-0.2-0.6-0.5-0.8-0.9C8.2,19.1,8.2,19,8.1,19l-1.8,1.1
	c0.3,0.6,0.8,1.2,1.3,1.5c0.9,0.5,2,0.7,3.2,0.4c0.8-0.2,1.5-0.7,1.8-1.4c0.5-0.9,0.4-2.1,0.4-3.3C13.1,15.2,13,13.2,13.1,11
	C13,11.1,13.1,11,13.1,11z"/>
<rect width="24" height="24"/>
<g>
	<g>
		<path class="st0" d="M8.1,19.6c-0.4,1.2-1.3,2.2-3.4,2.2c-2.4,0-3.7-1.7-3.7-3.7c0-2.1,1.4-3.8,3.7-3.8c2.1,0,3,1.1,3.3,2.3h-1
			c-0.3-0.8-0.9-1.4-2.3-1.4c-1.6,0-2.6,1.2-2.6,2.9c0,1.6,1,2.9,2.6,2.9c1.3,0,1.9-0.6,2.3-1.4H8.1z"/>
		<path class="st0" d="M10.1,19.6c0.3,0.8,0.9,1.4,2.3,1.4c1.4,0,1.9-0.5,1.9-1.2c0-0.7-0.4-1.1-2.2-1.4c-2.2-0.4-2.7-1-2.7-2
			c0-1.3,1.2-2,2.8-2c2.3,0,2.9,1.2,3,1.9h-1c-0.1-0.5-0.5-1.1-2-1.1c-1,0-1.7,0.4-1.7,1.1c0,0.6,0.3,1,1.9,1.2c2.6,0.4,3,1.2,3,2.2
			c0,1.1-0.9,2.1-3.1,2.1c-2,0-3-0.9-3.2-2.2H10.1z"/>
		<path class="st0" d="M17.4,19.6c0.3,0.8,0.9,1.4,2.3,1.4c1.4,0,1.9-0.5,1.9-1.2c0-0.7-0.4-1.1-2.2-1.4c-2.2-0.4-2.7-1-2.7-2
			c0-1.3,1.2-2,2.8-2c2.3,0,2.9,1.2,3,1.9h-1c-0.1-0.5-0.4-1.1-2-1.1c-1,0-1.7,0.4-1.7,1.1c0,0.6,0.3,1,1.9,1.2c2.6,0.4,3,1.2,3,2.2
			c0,1.1-0.9,2.1-3.1,2.1c-2,0-3-0.9-3.2-2.2H17.4z"/>
	</g>
</g>
</svg>
