<?xml version="1.0" encoding="utf-8"?>
<!-- Generator: Adobe Illustrator 16.0.0, SVG Export Plug-In . SVG Version: 6.00 Build 0)  -->
<!DOCTYPE svg PUBLIC "-//W3C//DTD SVG 1.0//EN" "http://www.w3.org/TR/2001/REC-SVG-20010904/DTD/svg10.dtd">
<svg version="1.0" id="레이어_1" xmlns="http://www.w3.org/2000/svg" xmlns:xlink="http://www.w3.org/1999/xlink" x="0px"
	 y="0px" width="612px" height="612px" viewBox="0 82.35 612 612" enable-background="new 0 82.35 612 612" xml:space="preserve">
<rect x="1.5" y="82.35" width="612" height="612"/>
<path fill="#FFFFFF" stroke="#000000" stroke-miterlimit="10" d="M351.543,380.54c0,24.382-19.76,44.15-44.143,44.162
	c-24.389,0-44.16-19.772-44.16-44.162l0,0c0-24.381,19.759-44.149,44.141-44.16C331.771,336.38,351.543,356.151,351.543,380.54
	L351.543,380.54z M403.84,169.413c-26.582,0-61.363,18.96-96.537,51.785c-35.155-32.647-69.955-51.39-96.519-51.39
	c-8.098,0-15.464,1.837-21.844,5.491c-27.156,15.662-33.239,64.464-19.217,125.708C109.605,319.572,70.5,349.257,70.5,380.54
	c0,31.403,39.303,61.166,99.6,79.594c-13.904,61.48-7.703,110.362,19.513,126.004c6.32,3.693,13.627,5.432,21.765,5.432
	c26.563,0,61.363-18.96,96.537-51.824c35.156,32.667,69.955,51.41,96.52,51.41c8.098,0,15.463-1.778,21.843-5.432
	c27.137-15.643,33.239-64.444,19.217-125.709c59.901-18.407,99.007-48.15,99.007-79.475c0-31.401-39.303-61.165-99.6-79.631
	c13.904-61.422,7.703-110.343-19.513-126.005c-6.28-3.634-13.588-5.471-21.567-5.491H403.84z M403.742,190.94v0.119
	c4.443,0,8.018,0.869,11.02,2.508c13.154,7.544,18.861,36.241,14.418,73.154c-1.066,9.085-2.805,18.664-4.938,28.439
	c-18.96-4.661-39.619-8.235-61.363-10.546c-13.035-17.874-26.564-34.108-40.191-48.329c31.441-29.23,60.969-45.267,81.074-45.326
	L403.742,190.94z M210.784,191.336c19.987,0,49.651,15.958,81.173,45.03c-13.549,14.22-27.058,30.356-39.896,48.229
	c-21.863,2.311-42.541,5.886-61.481,10.625c-2.212-9.677-3.852-19.039-5.017-28.045c-4.542-36.893,1.066-65.57,14.102-73.213
	c3.752-1.777,7.9-2.508,11.119-2.607V191.336z M307.203,251.573c8.986,9.243,17.973,19.592,26.861,30.889
	c-8.691-0.395-17.578-0.671-26.564-0.671c-9.085,0-18.071,0.197-26.86,0.671c8.69-11.297,17.677-21.646,26.563-30.908V251.573z
	 M307.5,303.437c14.615,0,29.17,0.672,43.49,1.837c8.018,11.495,15.839,23.76,23.363,36.735
	c7.348,12.64,14.023,25.477,20.105,38.434c-6.082,12.936-12.758,25.872-20.006,38.512c-7.506,13.035-15.268,25.438-23.305,36.933
	c-14.379,1.245-28.955,1.936-43.648,1.936c-14.615,0-29.171-0.69-43.489-1.837c-8.019-11.494-15.84-23.779-23.364-36.734
	c-7.347-12.641-14.022-25.478-20.105-38.434c5.984-12.977,12.758-25.932,20.007-38.592c7.505-13.035,15.267-25.398,23.305-36.893
	c14.378-1.264,28.953-1.936,43.647-1.936V303.437z M235.709,308.453c-4.74,7.446-9.48,15.069-13.904,22.91
	c-4.443,7.702-8.591,15.444-12.541,23.187c-5.234-12.956-9.678-25.872-13.352-38.453c12.641-2.963,25.972-5.589,39.797-7.624
	V308.453z M379.094,308.453c13.727,2.034,26.959,4.543,39.619,7.644c-3.556,12.482-8,25.319-13.035,38.177
	c-3.951-7.702-8.098-15.464-12.641-23.187c-4.443-7.742-9.184-15.286-13.924-22.634H379.094z M439.588,321.784
	c9.559,2.963,18.645,6.261,27.156,9.836c34.207,14.615,56.327,33.733,56.327,48.9c-0.099,15.168-22.219,34.365-56.426,48.882
	c-8.295,3.555-17.38,6.755-26.761,9.736c-5.531-18.921-12.76-38.631-21.726-58.854c8.888-20.086,15.997-39.697,21.429-58.539
	V321.784z M175.037,321.863c5.49,18.96,12.738,38.651,21.725,58.855c-8.888,20.085-16.037,39.697-21.448,58.538
	c-9.56-2.962-18.645-6.279-27.058-9.875c-34.207-14.555-56.327-33.693-56.327-48.861c0-15.167,22.12-34.404,56.327-48.9
	C156.551,328.065,165.636,324.865,175.037,321.863z M405.678,406.394c5.233,12.976,9.678,25.912,13.351,38.473
	c-12.64,3.102-25.991,5.728-39.815,7.703c4.739-7.406,9.479-15.05,13.924-22.871c4.443-7.702,8.59-15.563,12.561-23.305H405.678z
	 M209.264,406.788c3.95,7.742,8.098,15.465,12.64,23.207c4.543,7.702,9.184,15.246,13.924,22.574
	c-13.727-2.016-26.959-4.543-39.618-7.624c3.555-12.442,8.019-25.319,13.035-38.177L209.264,406.788z M424.42,465.782
	c2.213,9.736,3.95,19.117,5.017,28.104c4.542,36.893-1.066,65.57-14.102,73.233c-2.903,1.777-6.675,2.528-11.119,2.528
	c-19.987,0-49.651-15.938-81.173-45.031c13.549-14.219,27.059-30.336,39.895-48.189c21.863-2.33,42.543-5.925,61.482-10.665V465.782
	z M190.777,465.979c18.96,4.621,39.619,8.195,61.363,10.507c13.035,17.874,26.563,34.108,40.191,48.308
	c-31.501,29.29-61.067,45.326-81.173,45.326c-4.345-0.098-8.019-0.986-10.921-2.606c-13.154-7.505-18.861-36.222-14.417-73.134
	c1.066-9.086,2.805-18.645,4.938-28.4H190.777z M280.838,478.619c8.689,0.396,17.577,0.671,26.563,0.671
	c9.086,0,18.072-0.197,26.861-0.671c-8.691,11.297-17.676,21.626-26.564,30.909C298.711,500.245,289.725,489.916,280.838,478.619z"
	/>
</svg>
